<?xml version="1.0" standalone="no"?>
<!DOCTYPE svg PUBLIC "-//W3C//DTD SVG 20010904//EN"
 "http://www.w3.org/TR/2001/REC-SVG-20010904/DTD/svg10.dtd">
<svg version="1.0" xmlns="http://www.w3.org/2000/svg"
 width="781.000000pt" height="374.000000pt" viewBox="0 0 781.000000 374.000000"
 preserveAspectRatio="xMidYMid meet">
<metadata>
Created by potrace 1.15, written by Peter Selinger 2001-2017
</metadata>
<g transform="translate(0.000000,374.000000) scale(0.100000,-0.100000)"
fill="#000000" stroke="none">
<path d="M1064 2776 c-26 -26 -34 -42 -34 -70 0 -78 55 -130 131 -125 44 4 36
12 116 -131 166 -296 249 -439 270 -457 21 -20 35 -23 117 -23 83 0 96 -3 126
-25 36 -27 85 -32 111 -12 67 51 32 157 -52 157 -32 0 -43 -6 -66 -35 -28 -34
-29 -35 -103 -35 -41 0 -80 4 -86 8 -12 8 -61 92 -258 439 -81 144 -85 155
-80 197 13 92 -27 146 -109 146 -42 0 -54 -5 -83 -34z"/>
<path d="M1734 2580 c-26 -10 -62 -55 -70 -86 -10 -37 15 -94 50 -115 57 -35
137 -18 166 35 12 24 18 26 87 26 70 0 74 -1 83 -26 6 -14 10 -91 10 -171 l0
-145 -31 -36 c-26 -30 -30 -41 -25 -71 7 -45 38 -71 85 -71 87 1 119 93 52
153 l-28 25 -2 162 c-1 89 -6 172 -11 185 -14 37 -60 55 -140 55 -53 0 -70 3
-70 14 0 8 -16 28 -35 45 -37 32 -77 39 -121 21z"/>
<path d="M2692 2414 c-38 -20 -62 -60 -62 -105 0 -25 10 -41 41 -71 l41 -39
-4 -190 c-4 -238 2 -229 -154 -229 -66 0 -104 4 -104 10 0 24 -50 60 -83 60
-76 0 -118 -97 -64 -148 30 -28 89 -30 116 -3 15 15 38 19 140 23 102 3 125 7
148 24 52 38 57 63 61 267 l4 188 34 32 c39 36 52 85 35 129 -21 54 -94 79
-149 52z"/>
<path d="M3012 2290 c-74 -17 -106 -80 -100 -193 8 -144 39 -167 236 -167
l132 0 0 -54 c0 -35 -5 -58 -15 -66 -11 -9 -55 -10 -179 -5 -184 8 -175 12
-168 -66 l4 -38 61 -6 c34 -4 130 -7 212 -8 133 -2 153 0 178 17 45 30 57 65
57 163 0 100 -10 127 -59 160 -31 21 -46 23 -150 23 -136 0 -161 10 -161 65 0
60 14 65 176 65 l144 0 0 60 0 60 -167 -1 c-93 -1 -183 -5 -201 -9z"/>
<path d="M3720 1995 l0 -306 78 3 77 3 3 123 3 122 109 0 110 0 0 -125 0 -125
75 0 75 0 0 305 0 305 -74 0 c-89 0 -89 1 -79 -142 l6 -98 -111 0 -112 0 0
120 0 120 -80 0 -80 0 0 -305z"/>
<path d="M4700 2213 c-18 -49 -41 -113 -52 -143 -89 -248 -108 -300 -122 -332
-9 -21 -16 -40 -16 -43 0 -3 38 -5 83 -5 l84 0 12 43 c20 66 22 67 136 67
l102 0 17 -43 c9 -23 16 -48 16 -55 0 -8 26 -12 88 -12 l89 0 -37 108 c-20 59
-49 136 -64 172 -27 64 -51 127 -102 263 l-26 67 -88 0 -88 0 -32 -87z"/>
<path d="M5392 1998 l3 -303 78 -3 77 -3 0 91 0 90 64 0 63 0 44 -89 44 -90
83 0 c45 -1 82 2 82 7 0 4 -23 45 -50 92 -43 74 -48 86 -34 95 71 45 84 76 84
205 0 110 -21 160 -79 189 -37 19 -58 21 -251 21 l-210 0 2 -302z m373 159
c23 -33 20 -122 -5 -147 -21 -21 -93 -27 -172 -14 l-38 7 0 82 c0 45 3 85 7
88 3 4 48 7 100 6 83 -1 95 -3 108 -22z"/>
<path d="M6230 1995 l0 -305 240 0 240 0 0 60 0 60 -165 0 -165 0 0 65 0 65
130 0 130 0 0 60 0 60 -130 0 -130 0 0 60 0 60 165 0 165 0 0 60 0 60 -240 0
-240 0 0 -305z"/>
<path d="M1065 1870 c-35 -14 -66 -57 -71 -97 -6 -48 22 -97 70 -119 47 -23
112 -3 141 43 l20 32 142 1 c130 0 142 -2 148 -19 8 -25 55 -44 89 -35 36 9
66 50 66 89 0 25 -8 40 -31 59 -17 14 -39 26 -49 26 -30 0 -69 -21 -75 -42 -6
-16 -19 -18 -149 -18 -143 0 -143 0 -154 25 -23 49 -95 77 -147 55z"/>
<path d="M1782 1850 c-49 -30 -62 -71 -62 -202 0 -197 25 -218 255 -218 133 0
154 2 183 20 50 31 62 71 62 208 0 107 -2 122 -23 153 -36 54 -55 59 -227 59
-138 0 -159 -2 -188 -20z"/>
<path d="M3490 1755 l0 -65 75 0 75 0 0 65 0 65 -75 0 -75 0 0 -65z"/>
<path d="M4331 1755 l2 -66 76 3 76 3 3 63 3 62 -81 0 -81 0 2 -65z"/>
<path d="M5160 1755 l0 -65 75 0 75 0 0 65 0 65 -75 0 -75 0 0 -65z"/>
<path d="M5992 1758 l3 -63 76 -3 76 -3 2 66 2 65 -81 0 -81 0 3 -62z"/>
<path d="M1228 1632 c-65 -39 -72 -126 -17 -182 50 -49 143 -39 177 20 15 27
22 30 66 30 39 0 52 -4 68 -25 15 -19 29 -25 59 -25 82 0 119 87 61 143 -39
38 -85 36 -122 -3 -23 -25 -36 -30 -74 -30 -33 0 -46 4 -46 14 0 8 -16 28 -35
45 -41 36 -93 41 -137 13z"/>
<path d="M2748 1623 c-14 -9 -31 -27 -37 -40 -10 -22 -14 -23 -138 -23 -123 0
-129 1 -152 25 -17 18 -34 25 -61 25 -48 0 -79 -25 -86 -71 -5 -28 -1 -41 21
-67 37 -44 92 -45 128 -2 l26 30 125 0 125 0 16 -30 c8 -16 29 -36 45 -45 83
-43 170 14 170 113 0 81 -108 131 -182 85z"/>
<path d="M2990 1295 l0 -135 63 1 c34 0 78 5 97 12 48 17 80 67 80 127 0 87
-58 130 -175 130 l-65 0 0 -135z m179 79 c27 -22 31 -32 31 -76 0 -41 -5 -54
-29 -79 -26 -26 -36 -29 -90 -29 l-61 0 0 105 0 105 59 0 c49 0 65 -4 90 -26z"/>
<path d="M3300 1295 l0 -135 95 0 c78 0 95 3 95 15 0 12 -16 15 -84 15 l-84 0
0 50 -1 50 75 0 c59 0 74 3 74 15 0 12 -15 15 -75 15 l-75 0 0 40 0 40 85 0
c69 0 85 3 85 15 0 12 -17 15 -95 15 l-95 0 0 -135z"/>
<path d="M3603 1420 c-12 -5 -29 -20 -38 -34 -31 -47 3 -87 85 -101 58 -10 80
-21 80 -44 0 -35 -35 -54 -87 -49 -27 3 -56 9 -65 13 -12 5 -18 3 -18 -7 0
-22 44 -38 104 -38 69 0 106 26 106 75 0 44 -36 72 -103 81 -30 4 -58 15 -70
27 l-20 20 24 20 c20 16 34 18 87 14 38 -4 62 -2 62 4 0 25 -100 38 -147 19z"/>
<path d="M3993 1410 c-59 -36 -79 -110 -47 -173 34 -65 93 -89 169 -69 24 6
41 7 43 1 2 -5 10 -9 18 -9 10 0 14 15 14 60 l0 60 -60 0 c-47 0 -60 -3 -60
-15 0 -11 12 -15 45 -15 35 0 45 -4 45 -16 0 -59 -142 -58 -182 0 -4 6 -8 31
-8 56 0 88 75 130 179 99 25 -7 22 17 -4 29 -40 19 -116 15 -152 -8z"/>
<path d="M4270 1296 c0 -84 4 -136 10 -136 6 0 10 42 10 105 0 58 3 105 8 105
4 0 45 -47 91 -105 46 -58 88 -105 93 -105 4 0 8 61 8 135 0 83 -4 135 -10
135 -6 0 -10 -42 -10 -105 0 -58 -3 -105 -7 -104 -5 0 -44 46 -88 102 -44 55
-86 102 -93 105 -9 3 -12 -30 -12 -132z"/>
<path d="M4718 1423 c-15 -4 -48 -59 -48 -80 0 -22 43 -46 107 -61 59 -15 68
-20 71 -41 7 -48 -54 -65 -125 -36 -25 11 -40 12 -47 5 -37 -37 127 -70 179
-36 38 25 51 59 36 95 -11 26 -21 31 -89 48 -65 15 -78 22 -80 40 -6 41 52 52
136 27 28 -8 31 21 3 36 -19 10 -109 12 -143 3z"/>
<path d="M4958 1383 c-2 -27 -2 -87 0 -135 l3 -88 100 0 c81 0 99 3 99 15 0
12 -16 15 -86 15 l-85 0 3 48 3 47 73 3 c55 2 72 6 72 17 0 12 -15 15 -69 15
-68 0 -69 0 -73 28 -7 49 -2 52 83 52 64 0 79 3 79 15 0 12 -18 15 -99 15
l-100 0 -3 -47z"/>
<path d="M5220 1296 c0 -114 2 -136 15 -136 11 0 15 12 15 45 l0 45 59 0 c53
0 60 -2 67 -22 11 -36 37 -67 56 -68 15 0 14 5 -5 51 -19 44 -20 52 -7 62 36
28 42 44 31 84 -15 53 -41 66 -143 71 l-88 4 0 -136z m190 84 c5 -8 10 -27 10
-42 0 -40 -33 -58 -107 -58 l-63 0 0 61 0 61 76 -4 c52 -2 78 -8 84 -18z"/>
<path d="M5490 1427 c0 -19 120 -267 129 -267 3 0 26 46 50 103 24 56 52 117
62 135 18 31 18 32 -2 32 -11 0 -23 -10 -28 -22 -52 -131 -77 -188 -82 -188
-6 0 -44 92 -41 97 6 10 -57 109 -70 111 -10 2 -18 1 -18 -1z"/>
<path d="M5971 1413 c-45 -22 -71 -67 -71 -124 0 -98 95 -154 199 -118 30 11
39 39 10 30 -8 -3 -37 -7 -64 -9 -40 -3 -56 1 -77 18 -55 43 -53 134 3 174 26
18 100 21 129 6 28 -15 35 6 8 24 -29 21 -94 20 -137 -1z"/>
<path d="M6190 1295 l0 -135 101 0 c76 0 100 3 97 13 -3 8 -32 13 -86 15 l-82
3 0 49 0 50 70 0 c56 0 70 3 70 15 0 12 -14 15 -70 15 l-70 0 0 40 0 40 80 0
c64 0 80 3 80 15 0 12 -17 15 -95 15 l-95 0 0 -135z"/>
<path d="M6500 1423 c-32 -12 -50 -37 -50 -69 0 -38 25 -56 95 -68 47 -9 85
-31 85 -50 0 -40 -82 -60 -146 -36 -18 7 -31 7 -37 1 -15 -15 53 -41 108 -41
38 0 52 5 76 29 16 16 29 39 29 51 0 36 -41 67 -99 75 -57 8 -94 34 -85 60 9
21 46 29 110 21 35 -4 54 -2 54 4 0 23 -97 39 -140 23z"/>
<path d="M1784 1355 c-23 -23 -33 -25 -109 -25 -46 0 -95 -5 -109 -11 -30 -14
-56 -65 -56 -111 0 -27 -7 -37 -34 -55 -45 -29 -63 -81 -47 -135 33 -108 189
-100 222 12 14 47 -7 101 -50 126 -25 15 -31 25 -31 54 0 52 13 60 103 60 76
0 80 -1 108 -31 26 -28 34 -31 72 -26 52 7 77 36 77 87 0 73 -93 108 -146 55z"/>
<path d="M2046 1359 c-36 -29 -37 -89 0 -126 22 -21 32 -25 66 -20 26 4 50 15
65 31 22 24 30 26 113 26 108 0 134 -9 149 -51 19 -55 14 -82 -19 -101 -68
-39 -74 -134 -12 -189 31 -27 41 -31 79 -26 53 6 100 45 109 92 8 44 -18 100
-57 124 -27 17 -32 26 -36 66 -9 111 -46 137 -203 143 -105 4 -117 7 -137 28
-28 30 -80 32 -117 3z"/>
</g>
</svg>
